<svg width="117" height="25" viewBox="0 0 117 25" fill="none" xmlns="http://www.w3.org/2000/svg">
<path fill-rule="evenodd" clip-rule="evenodd" d="M17.378 0.0758626H24.409L23.6471 3.396H23.6561L18.8687 24.3085L0.0158691 24.3168L0.583663 23.2891L1.24919 22.0113L2.57197 19.4509H12.9733L17.3794 0.0758626H17.378ZM47.2536 0.0772514L75.7286 0.0612793L74.1223 1.65989H67.0273L66.1167 2.55711H73.2214L72.421 3.35225H72.4237L71.9131 3.85989H64.7272L63.8256 4.75433H71.0108L69.0541 6.69183H61.2151L56.8159 24.3092H49.9611L50.6858 21.1772H50.6913L54.3403 6.69253H43.6383L47.2543 0.0765566L47.2536 0.0772514ZM30.7084 19.0772C33.217 21.7981 37.5412 19.0772 37.5412 19.0772L33.0512 13.7481C32.7717 14.08 28.1977 16.3571 30.7077 19.0766L30.7084 19.0772ZM43.926 19.1891L48.1276 24.3022H41.7615L40.4132 22.8522C37.129 24.4078 33.5962 24.4078 33.5962 24.4078C28.2906 24.5106 25.6196 22.0335 25.6196 22.0335C20.2982 15.8217 29.7593 9.97169 29.7593 9.97169C26.5811 6.42031 27.323 3.06753 27.323 3.06753C28.0036 0.0911402 27.9961 0.0696127 27.9961 0.0696127H43.661L39.9831 6.7335C39.9583 6.69392 40.0753 5.45225 40.0491 5.41683C40.1558 4.00572 38.6279 3.29392 37.076 3.29392C35.2081 3.29392 33.6926 4.78003 33.6472 6.62725C33.6348 6.73836 33.6313 6.85156 33.6403 6.96545C33.6486 7.09461 33.6747 7.22933 33.7071 7.36545C33.8027 7.846 33.9975 8.28906 34.268 8.67378C35.9507 11.5349 40.4139 14.9127 40.4139 14.9127C41.0251 14.8016 41.6968 11.0272 41.6968 11.0272L46.5454 12.4141C46.1001 16.1911 43.926 19.1891 43.926 19.1891ZM69.6983 20.271H66.2915L65.8525 22.5731H69.6701L69.3432 24.3092H63.4829L65.2984 14.7904H70.9605L70.6199 16.5272H67.0156L66.6191 18.562H70.0238L69.6983 20.2703V20.271ZM75.7149 24.3099L75.0617 22.3904C74.878 21.8106 74.7224 21.3585 74.5518 20.7654H74.5242C74.2118 21.3022 73.9557 21.7821 73.5449 22.4599L72.423 24.3099H69.9695L73.5449 19.4509L71.8697 14.7904H74.0266L74.6082 16.612C74.7782 17.2064 74.9069 17.6293 75.0487 18.1946H75.0906C75.4458 17.5446 75.6867 17.0918 75.9991 16.5842L77.1065 14.7904H79.547L76.0555 19.4661L77.8862 24.3099H75.7149ZM81.8608 19.2259C82.0742 19.2675 82.2999 19.2953 82.6406 19.2953C83.876 19.2953 84.6846 18.5043 84.6846 17.5592C84.6846 16.6411 84.0177 16.3439 83.2235 16.3439C82.8402 16.3439 82.5697 16.3717 82.3997 16.4147L81.8608 19.2259ZM80.6681 14.9731C81.2786 14.8182 82.2441 14.7189 83.1664 14.7189C84.0177 14.7189 85.0109 14.8613 85.706 15.355C86.344 15.7925 86.7425 16.4578 86.7425 17.3752C86.7425 18.5766 86.1884 19.4793 85.4362 20.0585C84.6564 20.6668 83.5504 20.9349 82.3859 20.9349C82.0453 20.9349 81.761 20.9071 81.5483 20.8779L80.8952 24.3099H78.8945L80.6681 14.9731ZM89.9366 19.0272H90.7872C91.8939 19.0272 92.7026 18.3641 92.7026 17.4314C92.7026 16.6689 92.0494 16.3293 91.2415 16.3293C90.8581 16.3293 90.6165 16.3578 90.4472 16.4002L89.9366 19.0272ZM88.7005 14.9738C89.3406 14.8189 90.3055 14.7196 91.2552 14.7196C92.1637 14.7196 93.1011 14.8613 93.7673 15.2717C94.3915 15.6377 94.832 16.2453 94.832 17.1349C94.832 18.5481 93.8808 19.4231 92.6599 19.8189V19.8759C93.2284 20.1161 93.4693 20.7509 93.5684 21.612C93.6806 22.6717 93.7673 23.9154 93.938 24.3099H91.8375C91.7528 24.0564 91.653 23.237 91.5532 22.0641C91.4686 20.9064 91.0708 20.5529 90.2628 20.5529H89.6386L88.9276 24.3099H86.8994L88.7005 14.9738ZM101.389 20.271H97.9827L97.5429 22.5731H101.359L101.034 24.3092H95.174L96.9896 14.7904H102.652L102.311 16.5272H98.7067L98.3103 18.562H101.714L101.389 20.2703V20.271ZM102.92 21.9988C103.486 22.3377 104.292 22.6057 105.17 22.6057C105.962 22.6057 106.684 22.2397 106.684 21.4918C106.684 20.9571 106.273 20.6057 105.396 20.155C104.376 19.605 103.415 18.8717 103.415 17.6328C103.415 15.7168 105.1 14.5474 107.179 14.5474C108.34 14.5474 109.019 14.8016 109.429 15.0266L108.792 16.7168C108.48 16.5488 107.802 16.2807 107.01 16.2946C106.062 16.2946 105.566 16.7738 105.566 17.2946C105.566 17.8446 106.146 18.1814 106.952 18.6328C108.114 19.2377 108.849 20.0134 108.849 21.1397C108.849 23.2536 107.094 24.337 104.972 24.337C103.641 24.337 102.694 23.9995 102.24 23.662L102.92 21.9988ZM109.851 21.9988C110.416 22.3377 111.223 22.6057 112.1 22.6057C112.893 22.6057 113.615 22.2397 113.615 21.4918C113.615 20.9571 113.204 20.6057 112.327 20.155C111.308 19.605 110.346 18.8717 110.346 17.6328C110.346 15.7168 112.03 14.5474 114.109 14.5474C115.27 14.5474 115.949 14.8016 116.359 15.0266L115.723 16.7168C115.412 16.5488 114.733 16.2807 113.94 16.2946C112.992 16.2946 112.496 16.7738 112.496 17.2946C112.496 17.8446 113.077 18.1814 113.884 18.6328C115.044 19.2377 115.78 20.0134 115.78 21.1397C115.78 23.2536 114.025 24.337 111.903 24.337C110.572 24.337 109.624 23.9995 109.171 23.662L109.851 21.9988H109.851Z" fill="#FF0000"/>
</svg>
