<svg fill="#1A1A1A" xmlns="http://www.w3.org/2000/svg"  viewBox="0 0 50 50" width="100px" height="100px"><path fill="none" stroke="#1A1A1A" stroke-miterlimit="10" stroke-width="2" d="M41,45H9c-2.209,0-4-1.791-4-4V9c0-2.209,1.791-4,4-4h32c2.209,0,4,1.791,4,4v32C45,43.209,43.209,45,41,45z"/><path d="M38.5,21c-0.83,0-1.5,0.67-1.5,1.5c0,0.83,0.67,1.5,1.5,1.5s1.5-0.67,1.5-1.5C40,21.67,39.33,21,38.5,21z M38.5,21c-0.83,0-1.5,0.67-1.5,1.5c0,0.83,0.67,1.5,1.5,1.5s1.5-0.67,1.5-1.5C40,21.67,39.33,21,38.5,21z M27.5,21c-0.83,0-1.5,0.67-1.5,1.5c0,0.83,0.67,1.5,1.5,1.5s1.5-0.67,1.5-1.5C29,21.67,28.33,21,27.5,21z M38.5,21c-0.83,0-1.5,0.67-1.5,1.5c0,0.83,0.67,1.5,1.5,1.5s1.5-0.67,1.5-1.5C40,21.67,39.33,21,38.5,21z M38.5,21c-0.83,0-1.5,0.67-1.5,1.5c0,0.83,0.67,1.5,1.5,1.5s1.5-0.67,1.5-1.5C40,21.67,39.33,21,38.5,21z M27.5,21c-0.83,0-1.5,0.67-1.5,1.5c0,0.83,0.67,1.5,1.5,1.5s1.5-0.67,1.5-1.5C29,21.67,28.33,21,27.5,21z M41,5H16.6C12.39,8.83,10,14.06,10,19.5c0,5.16,2.11,10.1,5.91,13.84c0.12,0.21,0.22,1.24-0.24,2.43c-0.29,0.75-0.87,1.73-1.99,2.1c-0.43,0.14-0.71,0.56-0.68,1.01c0.03,0.45,0.36,0.83,0.8,0.92c2.87,0.57,4.73-0.29,6.23-0.97c1.35-0.62,2.24-1.04,3.61-0.48c2.8,1.09,5.78,1.65,8.86,1.65c4.49,0,8.8-1.19,12.5-3.45V9C45,6.79,43.21,5,41,5z M23,26h-5c-0.36,0-0.7-0.2-0.88-0.52c-0.17-0.31-0.16-0.7,0.03-1.01L21.2,18H18c-0.55,0-1-0.45-1-1s0.45-1,1-1h5c0.36,0,0.7,0.2,0.88,0.52c0.17,0.31,0.16,0.7-0.03,1.01L19.8,24H23c0.55,0,1,0.45,1,1S23.55,26,23,26z M31,25c0,0.55-0.45,1-1,1c-0.35,0-0.63-0.19-0.81-0.45C28.68,25.83,28.11,26,27.5,26c-1.93,0-3.5-1.57-3.5-3.5s1.57-3.5,3.5-3.5c0.61,0,1.18,0.17,1.69,0.45C29.37,19.19,29.65,19,30,19c0.55,0,1,0.45,1,1V25z M34,25c0,0.55-0.45,1-1,1s-1-0.45-1-1v-9c0-0.55,0.45-1,1-1s1,0.45,1,1V25z M38.5,26c-1.93,0-3.5-1.57-3.5-3.5s1.57-3.5,3.5-3.5s3.5,1.57,3.5,3.5S40.43,26,38.5,26z M38.5,21c-0.83,0-1.5,0.67-1.5,1.5c0,0.83,0.67,1.5,1.5,1.5s1.5-0.67,1.5-1.5C40,21.67,39.33,21,38.5,21z M27.5,21c-0.83,0-1.5,0.67-1.5,1.5c0,0.83,0.67,1.5,1.5,1.5s1.5-0.67,1.5-1.5C29,21.67,28.33,21,27.5,21z M27.5,21c-0.83,0-1.5,0.67-1.5,1.5c0,0.83,0.67,1.5,1.5,1.5s1.5-0.67,1.5-1.5C29,21.67,28.33,21,27.5,21z M38.5,21c-0.83,0-1.5,0.67-1.5,1.5c0,0.83,0.67,1.5,1.5,1.5s1.5-0.67,1.5-1.5C40,21.67,39.33,21,38.5,21z M38.5,21c-0.83,0-1.5,0.67-1.5,1.5c0,0.83,0.67,1.5,1.5,1.5s1.5-0.67,1.5-1.5C40,21.67,39.33,21,38.5,21z M27.5,21c-0.83,0-1.5,0.67-1.5,1.5c0,0.83,0.67,1.5,1.5,1.5s1.5-0.67,1.5-1.5C29,21.67,28.33,21,27.5,21z"/></svg>